-
If you care to share, you should love to seed,

please Seed what you leech and make the speed Faster with your speed,

Remember to visit
 
http://www.torrentkit.com



-
                                                     
                                                   
                                                         
                                                          
                                                           
                                                          
                                                          
                                                          
                                                           
                                                         
                                                          
                                                        
                                                      
                                     
                                                 
                                                   
                                             
                                              
                                                     
                                                      
                                                      
                                                      
                                                    
                                                     
                                                   
                                                     
                                                     
                                                      
                                                     
                                                      
                                                    
                 ARTiCHOKE                        
                                                
                      
                                                        
                                                      
                                                      
                                               
                                          
                                                   
                                            
                                                    
                                                       
                                                        
                                                      
                                                
                                                        
                                                 
                                              
                                                  
                                                
                                                  
                                        

      
                                
      SPRiNTER proudly presents...     
                                
      
 
They.Killed.Sister.Dorothy.2008.DVDRip.XViD-SPRiNTER
http://www.imdb.com/title/tt1183701/

Date: 2010.08

Director : Daniel Junge

Genre: Docu 

Plot: Documentary on the killing of 73-year-old Catholic nun and activist Sister Dorothy Stang 
      in February 2005, in the state of Par (Brazilian rain forest), where she, for 30 years, 
      fought along with environmentalists and the underprivileged local communities against the 
      exploitation of powerful loggers and landowners.

Cast : 
 Felcio Pontes ...  Himself 
 Martin Sheen ...  Narrator (voice) 
 Sister Becky Spires ...  Herself 
 David Stang ...  Himself 
 Sister Dorothy Stang ...  Herself (archive footage) 

 

      
                 
      Release notes     
                 
      

	   Enjoy!
         Hybrid.Source


      
           
     Greetings    
           
      


NTX aAF FiCO HNR CiNEFiLE AEN HUMANiSM


      
           
      Details     
           
      

Format                           : AVI
Format/Info                      : Audio Video Interleave
File size                        : 697 MiB
Duration                         : 1h 33mn
Overall bit rate                 : 1 043 Kbps
Writing application              : Nandub v1.0rc2
Writing library                  : Nandub build 1852/release

Video
ID                               : 0
Format                           : MPEG-4 Visual
Format profile                   : AdvancedSimple@L5
Format settings, BVOP            : No
Format settings, QPel            : No
Format settings, GMC             : No warppoints
Format settings, Matrix          : Default (H.263)
Codec ID                         : XVID
Codec ID/Hint                    : XviD
Duration                         : 1h 33mn
Bit rate                         : 904 Kbps
Width                            : 592 pixels
Height                           : 320 pixels
Display aspect ratio             : 1.850
Frame rate                       : 29.970 fps
Resolution                       : 24 bits
Colorimetry                      : 4:2:0
Scan type                        : Progressive
Bits/(Pixel*Frame)               : 0.159
Stream size                      : 604 MiB (87%)
Writing library                  : XviD 1.2.1 (UTC 2008-12-04)

Audio
ID                               : 1
Format                           : MPEG Audio
Format version                   : Version 1
Format profile                   : Layer 3
Codec ID                         : 55
Codec ID/Hint                    : MP3
Duration                         : 1h 33mn
Bit rate mode                    : Variable
Bit rate                         : 125 Kbps
Minimum bit rate                 : 64.0 Kbps
Channel(s)                       : 2 channels
Sampling rate                    : 48.0 KHz
Resolution                       : 16 bits
Stream size                      : 83.7 MiB (12%)
Alignment                        : Aligned on interleaves
Interleave, duration             : 24 ms (0.72 video frame)
Interleave, preload duration     : 257 ms
Writing library                  : LAME3.98r
Encoding settings                : -m s -V 5 -q 0 -lowpass 16.5 --vbr-new -b 64